<svg width="119" height="139" viewBox="0 0 119 139" fill="none" xmlns="http://www.w3.org/2000/svg">
<rect width="119" height="139" rx="8" fill="url(#paint0_linear_2034_11558)"/>
<g clip-path="url(#clip0_2034_11558)">
<path d="M57.425 79.9937C44.9354 80.1963 34.3985 69.8729 35.0235 56.3268C35.2378 51.6983 36.8988 47.4152 39.0121 43.3228C43.2269 35.1499 48.7394 27.8824 54.6211 20.8711C54.9961 20.4243 55.3295 19.9478 55.7284 19.5248C56.5678 18.6313 57.7584 18.7385 58.4906 19.7333C62.0327 24.5346 65.7177 29.2227 69.4026 33.9108C73.3376 38.9087 76.8559 44.1627 78.9752 50.2626C83.69 63.8385 74.4747 78.3973 60.1991 79.8865C59.2705 79.9818 58.3477 79.9759 57.4191 80.0056L57.425 79.9937ZM57.05 22.7297C56.0498 23.9687 55.145 25.0767 54.252 26.1966C49.4895 32.1655 44.9711 38.2952 41.566 45.1754C39.3991 49.5538 37.7977 54.0572 38.2144 59.0789C38.7561 65.5839 41.6969 70.7009 47.2452 74.0666C53.2817 77.7301 59.6634 77.9386 66.1165 75.0673C73.1709 71.928 77.862 63.5764 77.0107 55.9039C76.4273 50.6618 74.183 46.1166 71.3433 41.8217C66.9857 35.2273 61.61 29.3895 57.044 22.7297H57.05Z" fill="#FDFDFD"/>
<path d="M75.8677 33.6609C71.129 33.6609 67.3666 30.4561 66.7237 25.768C66.4142 23.4924 67.194 21.4015 68.2715 19.4417C70.0098 16.2726 72.1172 13.3597 74.5044 10.6493C75.195 9.86891 76.3737 9.76168 76.963 10.5242C79.5467 13.8541 82.3684 17.0232 84.1246 20.9131C86.9345 27.1381 82.6899 33.6609 75.8677 33.6609ZM75.7784 13.872C73.5102 16.8266 71.2183 19.5668 70.0693 23.0099C69.2062 25.5952 70.242 28.2342 72.5161 29.6519C74.9211 31.159 78.0108 30.9505 79.9574 29.1575C82.1839 27.1083 82.5947 24.4992 81.0766 21.5564C79.6717 18.8222 77.7369 16.4454 75.7784 13.872Z" fill="#FDFDFD"/>
<path d="M61.1819 70.7668C55.8062 70.743 51.6629 66.4838 51.6807 61.0093C51.6986 55.6362 55.9789 51.4246 61.4081 51.4365C66.7778 51.4485 71.1235 55.9043 71.0044 61.4323C70.9032 66.1442 67.0933 70.9872 61.1759 70.7668H61.1819Z" fill="#FDFDFD"/>
</g>
<defs>
<linearGradient id="paint0_linear_2034_11558" x1="59.5" y1="0" x2="59.5" y2="139" gradientUnits="userSpaceOnUse">
<stop stop-color="#E4BB7D"/>
<stop offset="1" stop-color="#C9913D"/>
</linearGradient>
<clipPath id="clip0_2034_11558">
<rect width="50" height="70" fill="white" transform="translate(35 10)"/>
</clipPath>
</defs>
</svg>
