<svg width="119" height="139" viewBox="0 0 119 139" fill="none" xmlns="http://www.w3.org/2000/svg">
<rect width="119" height="139" rx="8" fill="url(#paint0_linear_2034_11567)"/>
<g clip-path="url(#clip0_2034_11567)">
<path d="M58.0604 26.0234C64.2384 26.0234 70.4117 26.0234 76.5897 26.0234C80.1433 26.0234 82.9814 28.87 82.9814 32.4178C82.9861 44.3938 82.9954 56.3745 83 68.3505C83 72.1304 80.1758 74.977 76.3621 74.9863C67.6526 75.0049 58.943 74.9956 50.238 74.9956C46.7681 74.9956 43.2936 75.0049 39.8237 74.9956C35.7638 74.9909 32.9954 72.1537 33 68.0997C33.0186 56.2398 33.0186 44.3752 33.0139 32.5106C33.0139 28.8096 35.7592 26.0095 39.4474 26.0002C45.6533 25.9909 51.8545 26.0002 58.0604 26.0002V26.0188V26.0234ZM58.0139 72.6877C64.0479 72.6877 70.0819 72.6877 76.1159 72.6877C79.0331 72.6877 80.71 71.0113 80.7146 68.0812C80.7146 56.2769 80.7146 44.4681 80.7239 32.6639C80.7239 30.1052 78.917 28.2106 76.3529 28.2106C64.0572 28.2013 51.7663 28.2106 39.4706 28.2338C37.0831 28.2338 35.2622 30.0913 35.2622 32.4596C35.2529 44.352 35.2482 56.2444 35.2622 68.1369C35.2622 70.9974 36.9855 72.6923 39.8423 72.6923C45.9041 72.6923 51.966 72.6923 58.0279 72.6923L58.0139 72.6877Z" fill="#FDFDFD"/>
<path d="M62.6313 69.7296C58.5064 69.7296 54.3815 69.7296 50.252 69.7296C49.9408 69.7296 49.6296 69.6506 49.323 69.6553C48.7656 69.6646 48.2871 69.5578 48.1246 68.9448C47.9666 68.3504 48.1013 67.8164 48.5751 67.4031C50.0523 66.1168 51.5109 64.8026 53.0252 63.5535C59.454 58.2644 65.9014 52.9938 72.3442 47.7186C73.1571 47.0545 73.9839 46.3998 74.7968 45.7311C75.2567 45.3503 75.7769 45.2481 76.3111 45.4571C76.8964 45.6847 76.8871 46.2187 76.8918 46.7527C76.9196 53.0356 76.9614 59.3185 76.9893 65.606C76.9893 66.4279 76.9521 67.2545 76.9289 68.0764C76.8918 69.2745 76.3854 69.776 75.1823 69.776C71.0017 69.776 66.8165 69.776 62.6359 69.776C62.6359 69.7621 62.6359 69.7435 62.6359 69.7296H62.6313Z" fill="#FDFDFD"/>
<path d="M59.1523 30.6669C63.6209 30.9037 68.1732 32.4036 72.0379 35.7053C73.4686 36.9266 73.738 38.3197 72.8183 39.9728C71.5176 42.3086 69.7804 44.3193 67.5693 45.8238C65.7577 47.0544 63.7882 47.1659 61.9441 45.8006C61.1869 45.2387 60.3647 45.0483 59.4821 45.0251C58.149 44.988 56.8066 44.9648 55.4781 45.0344C54.7766 45.0716 54.1356 45.4338 53.541 45.8378C51.8363 46.994 50.0433 47.0358 48.3943 45.8099C46.3736 44.31 44.641 42.5083 43.3497 40.3257C42.2256 38.4265 42.5135 36.9359 44.1858 35.5102C47.1354 33.0027 50.6379 31.7674 54.3632 31.0384C55.7568 30.7644 57.1735 30.6576 59.1523 30.6623V30.6669ZM51.9013 39.7546C51.9292 39.6803 51.9524 39.606 51.8224 39.6478C51.8549 39.6803 51.8874 39.7081 51.9199 39.7406C52.3473 40.804 52.9743 41.7188 53.9219 42.3875C53.6014 41.2359 53.1555 40.1818 51.9013 39.7546ZM52.2358 44.0825C50.8748 42.9123 50.1037 41.3938 49.4208 39.8335C49.091 39.0812 48.9888 38.25 49.602 37.586C50.1641 36.9776 50.9166 36.9033 51.7202 37.0844C54.1588 37.6417 55.413 39.3506 56.1748 41.5656C56.3095 41.9557 56.0262 42.5361 56.4535 42.7126C56.8391 42.8751 57.3454 42.7404 57.8006 42.7312C57.8564 42.7312 57.9075 42.6847 57.9585 42.6801C59.798 42.5965 61.6189 42.6383 63.1239 43.8967C64.1365 44.7419 65.1399 44.6165 66.199 44.05C67.0723 43.5809 67.7505 42.8797 68.3775 42.1553C69.353 41.0269 70.4585 39.9775 70.9416 38.4868C71.1042 37.99 70.9881 37.6556 70.6211 37.3677C67.2999 34.744 63.542 33.1513 59.3103 32.9469C54.5444 32.7148 50.164 34.0243 46.2018 36.7037C44.7525 37.6788 44.5806 38.1711 45.5143 39.6245C46.6431 41.3845 48.1156 42.8472 49.811 44.0732C50.5728 44.6211 51.3671 44.5979 52.2265 44.0871L52.2358 44.0825Z" fill="#FDFDFD"/>
<path d="M51.9198 39.7451C51.8873 39.7125 51.8548 39.6847 51.8223 39.6522C51.9523 39.6104 51.9291 39.68 51.9012 39.759L51.9198 39.7451Z" fill="#FDFDFD"/>
</g>
<defs>
<linearGradient id="paint0_linear_2034_11567" x1="59.5" y1="0" x2="59.5" y2="139" gradientUnits="userSpaceOnUse">
<stop stop-color="#E4BB7D"/>
<stop offset="1" stop-color="#C9913D"/>
</linearGradient>
<clipPath id="clip0_2034_11567">
<rect width="50" height="49" fill="white" transform="translate(33 26)"/>
</clipPath>
</defs>
</svg>
