<svg width="30" height="30" viewBox="0 0 30 30" fill="none" xmlns="http://www.w3.org/2000/svg">
<path d="M16.3035 29.9287C15.7107 29.8573 15.1072 29.4682 14.668 29.0826L0.826819 15.2299C0.455436 14.8051 0.0804909 14.191 0.00907118 13.6197C-0.0194967 13.3841 0.0304971 13.102 0.00907118 12.8593C0.151911 12.3844 0.29831 11.9024 0.62327 11.5133L11.5469 0.584671C12.4575 -0.10082 13.6288 -0.193648 14.6287 0.359744C19.6709 5.12963 24.531 10.1351 29.409 15.0835C29.6875 15.5084 29.8732 15.9975 29.9125 16.5081C30.1875 20.0177 29.7089 23.8878 29.9018 27.4331C29.7696 28.7398 28.7876 29.7038 27.5164 29.9252H16.307L16.3035 29.9287ZM24.3417 23.4844C23.8597 23.4844 23.4704 23.8735 23.4704 24.3555C23.4704 24.8375 23.8597 25.2267 24.3417 25.2267C24.8238 25.2267 25.2131 24.8375 25.2131 24.3555C25.2131 23.8735 24.8238 23.4844 24.3417 23.4844ZM14.9608 17.5256C13.4431 17.5256 12.2111 18.7573 12.2111 20.2783C12.2111 21.7992 13.4431 23.031 14.9608 23.031C16.4785 23.031 17.7104 21.7992 17.7104 20.2783C17.7104 18.7573 16.4785 17.5256 14.9608 17.5256ZM9.16506 15.8262L20.6529 15.8404C21.7207 15.7262 21.7207 14.2017 20.6529 14.0874H9.26863C8.24733 14.1981 8.19018 15.6084 9.16506 15.8262ZM14.9608 6.89691C13.4431 6.89691 12.2111 8.12865 12.2111 9.64959C12.2111 11.1705 13.4431 12.4023 14.9608 12.4023C16.4785 12.4023 17.7104 11.1705 17.7104 9.64959C17.7104 8.12865 16.4785 6.89691 14.9608 6.89691Z" fill="url(#paint0_linear_2034_11509)"/>
<path d="M14.9608 10.6527C15.513 10.6527 15.9607 10.2051 15.9607 9.653C15.9607 9.10089 15.513 8.65332 14.9608 8.65332C14.4086 8.65332 13.9609 9.10089 13.9609 9.653C13.9609 10.2051 14.4086 10.6527 14.9608 10.6527Z" fill="url(#paint1_linear_2034_11509)"/>
<path d="M14.9569 21.2777C15.5091 21.2777 15.9568 20.8301 15.9568 20.278C15.9568 19.7259 15.5091 19.2783 14.9569 19.2783C14.4047 19.2783 13.957 19.7259 13.957 20.278C13.957 20.8301 14.4047 21.2777 14.9569 21.2777Z" fill="url(#paint2_linear_2034_11509)"/>
<defs>
<linearGradient id="paint0_linear_2034_11509" x1="15.0001" y1="29.9287" x2="15.0001" y2="-0.000852724" gradientUnits="userSpaceOnUse">
<stop stop-color="#C9913D"/>
<stop offset="1" stop-color="#E4BB7D"/>
</linearGradient>
<linearGradient id="paint1_linear_2034_11509" x1="13.9574" y1="9.653" x2="15.9607" y2="9.653" gradientUnits="userSpaceOnUse">
<stop stop-color="#C9913D"/>
<stop offset="1" stop-color="#E4BB7D"/>
</linearGradient>
<linearGradient id="paint2_linear_2034_11509" x1="13.957" y1="20.278" x2="15.9568" y2="20.278" gradientUnits="userSpaceOnUse">
<stop stop-color="#C9913D"/>
<stop offset="1" stop-color="#E4BB7D"/>
</linearGradient>
</defs>
</svg>
