<svg width="30" height="30" viewBox="0 0 30 30" fill="none" xmlns="http://www.w3.org/2000/svg">
<path d="M30.0002 17.8726V19.1606C29.4026 25.3111 22.2488 28.6279 17.2316 24.8102C12.5507 21.2466 13.3022 13.8975 18.6129 11.3786C23.5515 9.03501 29.5851 12.3804 30.0002 17.8726ZM22.9181 22.7422C25.2263 21.9586 25.237 18.5882 22.9073 17.7867C22.4206 17.6185 21.7407 17.7294 21.39 17.3716C20.8567 16.8242 21.2504 15.9047 22.0019 15.8761C22.6998 15.851 22.9753 16.5594 23.5264 16.5881C24.0203 16.6131 24.4998 16.1909 24.4855 15.6828C24.4676 15.0138 23.4799 14.52 22.936 14.3018C22.8465 14.173 22.9431 13.35 22.9037 13.1031C22.7928 12.3911 21.8874 12.1228 21.39 12.6344C20.9892 13.0423 21.2146 13.7758 21.1395 14.291C18.8169 15.0674 18.8312 18.4737 21.1502 19.2501C21.6083 19.4039 22.2775 19.3288 22.6103 19.6043C23.2509 20.1374 22.8 21.218 21.9411 21.1571C21.1359 21.0963 20.8639 20.1159 20.141 20.1732C19.6758 20.209 19.3072 20.6669 19.3322 21.1249C19.368 21.7725 20.5633 22.5704 21.1395 22.7457C21.211 23.2502 20.9963 23.9622 21.3578 24.3737C21.7192 24.7852 22.3992 24.7637 22.7212 24.3415C23.0433 23.9157 22.8465 23.2538 22.9145 22.7493L22.9181 22.7422Z" fill="url(#paint0_linear_2034_11482)"/>
<path d="M10.6038 29.9983V7.03502H7.76234C7.7015 7.03502 7.37943 6.83465 7.32217 6.77025C6.99651 6.4053 7.02872 5.91154 7.32217 5.53943L13.5025 0.240486C13.9212 -0.0564842 14.3221 -0.102998 14.73 0.240486L20.8853 5.50723C21.2002 5.8686 21.2504 6.40887 20.914 6.77025C20.871 6.81676 20.4988 7.03144 20.4738 7.03144H17.6323V9.87234C16.3905 10.5987 15.2704 11.4574 14.3865 12.6023C11.0476 16.946 11.9315 23.1179 16.3512 26.3274C16.548 26.4705 17.593 27.0751 17.6216 27.1646C17.5071 28.0913 18.0546 29.5404 16.9882 29.9948H10.6002L10.6038 29.9983Z" fill="url(#paint1_linear_2034_11482)"/>
<path d="M5.33203 29.9987V13.1573C5.34992 13.0141 5.4716 12.7315 5.56464 12.6313C5.60759 12.5848 5.97977 12.3701 6.00482 12.3701H8.84628V30.0023H5.33203V29.9987Z" fill="url(#paint2_linear_2034_11482)"/>
<path d="M0.644162 29.9986C0.318503 29.7983 0.0501014 29.6301 0 29.2079L0.02863 20.0376C0.0572594 19.8158 0.483122 19.3936 0.672792 19.3936H3.51426V29.9986H0.644162Z" fill="url(#paint3_linear_2034_11482)"/>
<defs>
<linearGradient id="paint0_linear_2034_11482" x1="14.1324" y1="18.5273" x2="30.0002" y2="18.5273" gradientUnits="userSpaceOnUse">
<stop stop-color="#C9913D"/>
<stop offset="1" stop-color="#E4BB7D"/>
</linearGradient>
<linearGradient id="paint1_linear_2034_11482" x1="14.1181" y1="29.9983" x2="14.1181" y2="0.000761686" gradientUnits="userSpaceOnUse">
<stop stop-color="#C9913D"/>
<stop offset="1" stop-color="#E4BB7D"/>
</linearGradient>
<linearGradient id="paint2_linear_2034_11482" x1="7.08916" y1="29.9987" x2="7.08916" y2="12.3665" gradientUnits="userSpaceOnUse">
<stop stop-color="#C9913D"/>
<stop offset="1" stop-color="#E4BB7D"/>
</linearGradient>
<linearGradient id="paint3_linear_2034_11482" x1="1.75713" y1="29.9986" x2="1.75713" y2="19.3971" gradientUnits="userSpaceOnUse">
<stop stop-color="#C9913D"/>
<stop offset="1" stop-color="#E4BB7D"/>
</linearGradient>
</defs>
</svg>
