<svg width="30" height="27" viewBox="0 0 30 27" fill="none" xmlns="http://www.w3.org/2000/svg">
<path d="M27.9235 15.0046V5.04067C27.9235 3.60102 25.8242 1.43776 24.3842 1.43776H21.4286C21.709 -0.479252 19.2649 -0.479252 19.5453 1.43776H8.37817C8.65858 -0.479252 6.21447 -0.479252 6.49488 1.43776H3.53922C2.04244 1.43776 0.0719928 3.54041 0.00757447 5.04825L0 21.4679C0.0644184 23.2106 2.05381 25.264 3.80068 25.264H18.1811C18.0637 24.9571 17.8553 24.6995 17.715 24.4002C16.601 21.9983 16.8397 19.2667 18.3592 17.1034C20.5078 14.0537 24.6646 13.1406 27.9159 15.0084L27.9235 15.0046ZM20.6821 10.0643C21.277 10.0643 21.762 10.5454 21.762 11.144C21.762 11.7426 21.277 12.2238 20.6821 12.2238C20.0872 12.2238 19.6021 11.7388 19.6021 11.144C19.6021 10.5492 20.0872 10.0643 20.6821 10.0643ZM7.24517 18.1074C6.65025 18.1074 6.169 17.6263 6.169 17.0315C6.169 16.4367 6.65025 15.9555 7.24517 15.9555C7.84009 15.9555 8.32133 16.4367 8.32133 17.0315C8.32133 17.6263 7.84009 18.1074 7.24517 18.1074ZM7.24517 12.2238C6.65025 12.2238 6.16521 11.7388 6.16521 11.144C6.16521 10.5492 6.65025 10.0643 7.24517 10.0643C7.84009 10.0643 8.32511 10.5454 8.32511 11.144C8.32511 11.7426 7.84009 12.2238 7.24517 12.2238ZM14.1076 18.1074C12.7662 18.3044 12.4479 16.2359 13.6188 15.9934C15.324 15.6448 15.4907 17.9028 14.1076 18.1074ZM13.9636 12.22C13.3687 12.22 12.8875 11.7388 12.8875 11.144C12.8875 10.5492 13.3687 10.0681 13.9636 10.0681C14.5585 10.0681 15.0398 10.5492 15.0398 11.144C15.0398 11.7388 14.5585 12.22 13.9636 12.22Z" fill="url(#paint0_linear_2034_11505)"/>
<path d="M24.2936 15.5879C21.1409 15.5879 18.5869 18.1414 18.5869 21.2935C18.5869 24.4455 21.1409 26.999 24.2936 26.999C27.4463 26.999 30.0003 24.4455 30.0003 21.2935C30.0003 18.1414 27.4463 15.5879 24.2936 15.5879ZM26.9499 20.9449L23.9185 23.3658C23.585 23.5628 23.2516 23.5476 22.9257 23.3431C22.7476 23.2294 21.5918 21.7784 21.5123 21.5776C21.1902 20.7706 21.8192 20.0735 22.668 20.2933C23.0772 20.3994 23.316 20.9601 23.6078 21.2291C23.7821 21.2291 25.5176 19.5242 25.9609 19.4333C26.9461 19.2287 27.4842 20.1455 26.9537 20.9449H26.9499Z" fill="url(#paint1_linear_2034_11505)"/>
<defs>
<linearGradient id="paint0_linear_2034_11505" x1="13.9636" y1="29.2003" x2="13.9636" y2="9.94686" gradientUnits="userSpaceOnUse">
<stop stop-color="#C9913D"/>
<stop offset="1" stop-color="#E4BB7D"/>
</linearGradient>
<linearGradient id="paint1_linear_2034_11505" x1="18.5869" y1="21.2935" x2="30.0041" y2="21.2935" gradientUnits="userSpaceOnUse">
<stop stop-color="#C9913D"/>
<stop offset="1" stop-color="#E4BB7D"/>
</linearGradient>
</defs>
</svg>
