<svg width="30" height="30" viewBox="0 0 30 30" fill="none" xmlns="http://www.w3.org/2000/svg">
<path d="M24.626 14.983C24.626 20.3021 20.311 24.6163 14.9907 24.6163C9.67049 24.6163 5.35547 20.3021 5.35547 14.983C5.35547 9.66378 9.67049 5.34961 14.9907 5.34961C20.311 5.34961 24.626 9.66378 24.626 14.983ZM16.0777 14.4355L16.0491 9.41457C15.7589 8.25023 14.1653 8.28292 13.9283 9.47176C14.0346 11.2612 13.7649 13.2548 13.9201 15.0197C13.961 15.4732 14.0999 15.6325 14.435 15.9103C15.0725 16.4333 16.8826 17.663 17.6059 18.0225C18.8726 18.6598 19.8656 17.1686 18.8358 16.2535L16.0736 14.4314L16.0777 14.4355Z" fill="url(#paint0_linear_2034_11501)"/>
<path d="M7.97108 4.27942C8.54723 4.2549 9.17242 4.22631 9.49932 4.79009C9.92837 5.52546 9.43394 6.34662 8.60852 6.42016C7.78311 6.49369 6.16089 6.49369 5.32322 6.42016C4.76341 6.37113 4.3507 6.01979 4.28941 5.44783C4.2036 4.6471 4.21586 2.9149 4.28941 2.1019C4.36705 1.23172 5.26601 0.749641 5.99744 1.26849C6.48778 1.61574 6.41832 2.14276 6.46326 2.67386C14.2434 -2.76788 25.1658 0.443238 28.8066 9.16554C33.4526 20.286 23.8337 31.9865 12.0368 29.6783C5.4458 28.3914 0.289011 22.5002 0.00706274 15.7512C-0.0297131 14.8769 0.0356701 13.7739 1.23701 13.9168C2.29534 14.0435 2.08286 15.0444 2.14824 15.7512C2.80203 22.7821 8.25711 28.0523 15.4284 27.8276C27.356 27.4476 32.3208 12.4584 23.0533 4.9535C18.8159 1.52178 12.4782 1.16227 7.97108 4.2835V4.27942Z" fill="url(#paint1_linear_2034_11501)"/>
<defs>
<linearGradient id="paint0_linear_2034_11501" x1="14.9948" y1="35.6999" x2="14.9948" y2="10.2071" gradientUnits="userSpaceOnUse">
<stop stop-color="#C9913D"/>
<stop offset="1" stop-color="#E4BB7D"/>
</linearGradient>
<linearGradient id="paint1_linear_2034_11501" x1="14.9993" y1="35.7001" x2="14.9993" y2="10.2073" gradientUnits="userSpaceOnUse">
<stop stop-color="#C9913D"/>
<stop offset="1" stop-color="#E4BB7D"/>
</linearGradient>
</defs>
</svg>
