<svg width="30" height="30" viewBox="0 0 30 30" fill="none" xmlns="http://www.w3.org/2000/svg">
<path d="M28.75 6.25084H25.7562C26.0575 5.65533 26.226 5.00154 26.25 4.33459C26.2066 3.15553 25.7019 2.04067 24.8446 1.2301C23.9873 0.419525 22.8459 -0.0219177 21.6663 0.000838047C20.2612 0.0613566 18.8989 0.502284 17.7248 1.27656C16.5508 2.05083 15.609 3.12938 15 4.39709C14.3975 3.13293 13.4629 2.05618 12.2961 1.28188C11.1292 0.507571 9.77393 0.0647917 8.375 0.000838047C8.3275 0.000838047 8.28 0.000838047 8.2325 0.000838047C7.06975 0.00270013 5.953 0.455312 5.11706 1.26352C4.28111 2.07172 3.79109 3.17256 3.75 4.33459V4.41709C3.77439 5.05527 3.93597 5.68071 4.22375 6.25084H1.25C0.918479 6.25084 0.600537 6.38253 0.366117 6.61695C0.131696 6.85138 0 7.16932 0 7.50084L0 11.2508C0 11.5824 0.131696 11.9003 0.366117 12.1347C0.600537 12.3691 0.918479 12.5008 1.25 12.5008H28.75C29.0815 12.5008 29.3995 12.3691 29.6339 12.1347C29.8683 11.9003 30 11.5824 30 11.2508V7.50084C30 7.16932 29.8683 6.85138 29.6339 6.61695C29.3995 6.38253 29.0815 6.25084 28.75 6.25084ZM21.705 2.50084C22.2156 2.48759 22.7118 2.67017 23.0921 3.01114C23.4723 3.3521 23.7077 3.82561 23.75 4.33459C23.7323 4.84624 23.5176 5.33126 23.1507 5.68834C22.7838 6.04542 22.2932 6.24695 21.7812 6.25084H16.8475C17.625 4.67709 19.1713 2.50084 21.705 2.50084ZM6.25 4.37584C6.282 3.86433 6.50915 3.38462 6.88457 3.03572C7.25998 2.68682 7.75502 2.49535 8.2675 2.50084C10.8538 2.51084 12.3688 4.66459 13.155 6.25084H8.28C7.76674 6.2547 7.27126 6.06304 6.89421 5.71478C6.51716 5.36652 6.28683 4.88779 6.25 4.37584Z" fill="#E0B573"/>
<path d="M17.5 15.001V30.001H23.75C24.7446 30.001 25.6984 29.6059 26.4017 28.9026C27.1049 28.1994 27.5 27.2455 27.5 26.251V15.001H17.5Z" fill="#E0B573"/>
<path d="M12.5 15.001H2.5V26.251C2.5 27.2455 2.89509 28.1994 3.59835 28.9026C4.30161 29.6059 5.25544 30.001 6.25 30.001H12.5V15.001Z" fill="#E0B573"/>
</svg>
