<svg width="30" height="38" viewBox="0 0 30 38" fill="none" xmlns="http://www.w3.org/2000/svg">
<path d="M13.6885 0C11.9364 1.33386 11.0737 3.68589 12.0876 5.74892C10.4955 6.20244 9.11249 7.18949 8.00961 8.40775L6.88006 9.9728L5.91504 8.64339C6.31972 6.78044 7.33366 5.08644 8.62776 3.71257C8.94795 3.37021 9.51273 2.9745 9.75732 2.65882C9.95299 2.40094 10.0553 2.03636 10.2376 1.75625C10.6467 1.12933 11.3405 0.551328 12.0387 0.28011L12.9637 0.00444619H13.693L13.6885 0Z" fill="url(#paint0_linear_2034_11490)"/>
<path d="M0 37.2722C0.053365 35.1113 0.720427 32.8437 2.59709 31.6077C4.63386 30.2694 7.07975 30.1227 9.30329 29.3579C11.2822 28.6777 12.0071 27.5083 11.9404 25.4053C13.8082 26.3968 16.1785 26.3923 18.0551 25.4053C17.9884 27.166 18.4776 28.3931 20.1186 29.1312C22.3243 30.1271 24.9748 30.1093 27.1805 31.461C29.2173 32.7104 29.9377 34.9779 30 37.2722H0Z" fill="url(#paint1_linear_2034_11490)"/>
<path d="M10.9309 23.5024C11.0199 23.1201 11.26 22.7999 11.2867 22.382C11.3178 21.8573 11.0777 21.4572 10.8064 21.0437C10.1527 20.0566 9.18324 19.1541 8.52952 18.1492C8.92975 17.669 9.26328 17.3267 9.24994 16.6375C9.22771 15.3392 8.73408 13.7786 8.7074 12.4403L7.68457 10.9909C8.52062 8.91449 10.4862 7.30941 12.6342 6.69584C16.4853 5.59319 20.6523 7.27829 22.3288 10.9553L21.2926 12.4448C21.266 13.7831 20.7723 15.3348 20.7501 16.642C20.7367 17.3311 21.0703 17.6735 21.4705 18.1537C20.8168 19.1585 19.8473 20.0611 19.1936 21.0481C18.8823 21.515 18.6466 21.9418 18.7178 22.5287C18.7578 22.8711 18.9802 23.1512 19.0735 23.4713C16.6988 25.5833 13.3413 25.5432 10.9309 23.5069V23.5024Z" fill="url(#paint2_linear_2034_11490)"/>
<path d="M26.2115 3.05479L29.7291 3.575L29.8536 3.7484L27.7769 16.011C27.5501 16.798 27.1098 17.4738 26.5672 18.0785L21.0395 23.0315C20.3458 23.4672 19.5008 22.6492 19.9633 21.8088C20.5503 20.7417 21.9067 19.5991 22.5649 18.5142C23.3431 18.3319 24.068 18.0251 24.2859 17.1759C24.4816 16.42 24.7128 14.4459 24.7528 13.6412C24.7706 13.3077 24.8018 13.0143 24.4415 12.8586C24.1302 12.7253 23.8634 12.8231 23.7389 13.1387L23.2186 16.9136C22.9873 17.6027 21.8622 17.3893 21.8311 16.6957C22.0668 15.3441 22.089 13.9435 22.4181 12.6185L25.4421 8.65254L26.207 3.0459L26.2115 3.05479Z" fill="url(#paint3_linear_2034_11490)"/>
<path d="M3.78864 3.05469L4.55354 8.66133L7.57311 12.6273C7.90219 13.9523 7.92443 15.3528 8.16012 16.7045C8.13344 17.3981 7.00833 17.6115 6.77263 16.9224L6.25232 13.1475C5.84319 12.4939 5.21171 12.8185 5.24284 13.5744C5.27841 14.3969 5.50966 16.411 5.70978 17.1847C5.92769 18.0339 6.65256 18.3362 7.4308 18.523C8.11565 19.6212 9.4053 20.7327 10.0323 21.8176C10.4948 22.6179 9.65879 23.4849 8.95615 23.0403L3.42843 18.0873C2.88589 17.4826 2.45007 16.8068 2.21882 16.0198L0.146484 3.75274L0.271003 3.57934L3.78864 3.05913V3.05469Z" fill="url(#paint4_linear_2034_11490)"/>
<path d="M18.713 1.08896C18.2639 1.07117 17.6635 1.12897 17.6902 1.70698C17.7125 2.28943 18.4018 2.15604 18.8376 2.31166C19.3356 2.48506 19.807 2.93857 19.9538 3.44989C20.0783 3.87672 19.976 4.7215 20.6964 4.57032C21.1812 4.46806 21.0878 4.01455 21.1767 3.6633C21.2034 3.56104 21.1323 3.46322 21.2968 3.49435C22.7288 4.85043 23.7649 6.66448 24.1029 8.6208L23.1512 9.97245L23.0045 9.92798C21.1278 6.38437 17.0054 4.7215 13.1186 5.45067C11.4688 1.96041 15.7024 -1.41425 18.713 1.08896Z" fill="url(#paint5_linear_2034_11490)"/>
<path d="M0.386548 24.334C0.568878 24.1917 1.2982 24.1606 1.6006 24.0583C2.37439 23.7915 2.93472 23.0757 3.11261 22.2976C3.20155 21.9241 3.06369 21.1905 3.74409 21.2617C4.34445 21.3239 4.21104 22.0575 4.33555 22.4977C4.5668 23.3025 5.30057 23.9516 6.10105 24.1561C6.48794 24.2539 7.22616 24.1383 7.19058 24.783C7.155 25.4277 6.16775 25.2899 5.66523 25.5033C5.20718 25.699 4.62461 26.2903 4.43339 26.7483C4.24217 27.2062 4.33111 28.2955 3.68628 28.2555C3.04145 28.2155 3.15263 27.2462 2.9703 26.7838C2.7435 26.2058 2.23209 25.7034 1.65397 25.4811C1.2982 25.3433 0.693397 25.3388 0.471043 25.2054C0.195324 25.0409 0.133064 24.5474 0.386548 24.3473V24.334Z" fill="url(#paint6_linear_2034_11490)"/>
<path d="M25.1754 22.213C25.9225 22.0574 25.8069 22.9111 25.9581 23.3646C26.1538 23.9248 26.6563 24.3561 27.2255 24.4984C27.5902 24.5917 28.1772 24.4628 28.1772 25.0764C28.1772 25.7255 27.3945 25.5832 26.9587 25.7522C26.5229 25.9212 26.047 26.4236 25.9136 26.8904C25.8024 27.2728 25.9181 27.9042 25.3711 27.9575C24.6418 28.0242 24.8018 27.2061 24.6195 26.7348C24.4594 26.3258 24.0859 25.9523 23.6767 25.7833C23.192 25.5832 22.1114 25.6766 22.4716 24.8407C22.6361 24.4584 23.1965 24.5517 23.5789 24.4228C24.0725 24.2538 24.4994 23.8137 24.6506 23.3112C24.7663 22.9244 24.6684 22.3153 25.1621 22.2175L25.1754 22.213Z" fill="url(#paint7_linear_2034_11490)"/>
<path d="M20.6784 1.01806C20.7451 1.31151 21.0475 1.45824 21.261 1.63608V1.74279L20.5717 2.32524L19.958 1.64498C20.0692 1.53827 20.5673 0.938032 20.6784 1.01806Z" fill="url(#paint8_linear_2034_11490)"/>
<defs>
<linearGradient id="paint0_linear_2034_11490" x1="9.80179" y1="38.8063" x2="9.80179" y2="4.25945" gradientUnits="userSpaceOnUse">
<stop stop-color="#C9913D"/>
<stop offset="1" stop-color="#E4BB7D"/>
</linearGradient>
<linearGradient id="paint1_linear_2034_11490" x1="0" y1="31.3365" x2="29.9956" y2="31.3365" gradientUnits="userSpaceOnUse">
<stop stop-color="#C9913D"/>
<stop offset="1" stop-color="#E4BB7D"/>
</linearGradient>
<linearGradient id="paint2_linear_2034_11490" x1="15.0089" y1="38.8062" x2="15.0089" y2="4.25933" gradientUnits="userSpaceOnUse">
<stop stop-color="#C9913D"/>
<stop offset="1" stop-color="#E4BB7D"/>
</linearGradient>
<linearGradient id="paint3_linear_2034_11490" x1="24.8418" y1="38.8066" x2="24.8418" y2="4.25971" gradientUnits="userSpaceOnUse">
<stop stop-color="#C9913D"/>
<stop offset="1" stop-color="#E4BB7D"/>
</linearGradient>
<linearGradient id="paint4_linear_2034_11490" x1="5.15834" y1="38.8065" x2="5.15834" y2="4.25961" gradientUnits="userSpaceOnUse">
<stop stop-color="#C9913D"/>
<stop offset="1" stop-color="#E4BB7D"/>
</linearGradient>
<linearGradient id="paint5_linear_2034_11490" x1="18.424" y1="38.806" x2="18.424" y2="4.25909" gradientUnits="userSpaceOnUse">
<stop stop-color="#C9913D"/>
<stop offset="1" stop-color="#E4BB7D"/>
</linearGradient>
<linearGradient id="paint6_linear_2034_11490" x1="3.70852" y1="38.8063" x2="3.70852" y2="4.25943" gradientUnits="userSpaceOnUse">
<stop stop-color="#C9913D"/>
<stop offset="1" stop-color="#E4BB7D"/>
</linearGradient>
<linearGradient id="paint7_linear_2034_11490" x1="25.2955" y1="38.8062" x2="25.2955" y2="4.25932" gradientUnits="userSpaceOnUse">
<stop stop-color="#C9913D"/>
<stop offset="1" stop-color="#E4BB7D"/>
</linearGradient>
<linearGradient id="paint8_linear_2034_11490" x1="20.6073" y1="38.8062" x2="20.6073" y2="4.25934" gradientUnits="userSpaceOnUse">
<stop stop-color="#C9913D"/>
<stop offset="1" stop-color="#E4BB7D"/>
</linearGradient>
</defs>
</svg>
