<svg width="30" height="31" viewBox="0 0 30 31" fill="none" xmlns="http://www.w3.org/2000/svg">
<path d="M29.9959 10.2419C30.0286 9.80046 29.3051 9.01169 28.9045 9.01169H24.0114V2.57068C24.0114 1.46313 22.5603 0.0572171 21.4403 0H2.57528C1.22224 0.20026 0.159422 1.27104 0 2.63608V25.9439C0.192124 28.0404 1.89263 29.7447 3.97738 29.9899C10.0109 29.9695 16.0444 30.0104 22.0779 29.9817C23.5741 29.9736 25.8918 30.2147 27.2489 29.667C28.7246 29.0703 29.8161 27.5868 30 26.0092V10.2378L29.9959 10.2419ZM6.46273 5.99963C7.18626 5.87702 10.8448 5.8811 11.5561 6.01596C13.1871 6.32248 13.1707 8.79917 11.2985 9.00351C10.203 9.12203 7.9098 9.10977 6.79793 9.01577C4.77858 8.84003 4.79493 6.28162 6.46682 6.00371L6.46273 5.99963ZM6.39324 11.2799L17.5651 11.2677C19.1756 11.6478 19.1307 13.9201 17.4997 14.2184L6.45047 14.2103C4.86442 13.8711 4.82355 11.6805 6.38915 11.2758L6.39324 11.2799ZM17.4915 19.4947H6.51996C4.75405 19.1187 4.8399 16.785 6.60172 16.4908L17.3484 16.4785C19.1552 16.6951 19.2043 19.1187 17.4915 19.4906V19.4947ZM17.2176 24.7791C13.8656 25.0815 10.064 24.5584 6.66303 24.7709C4.89712 24.5339 4.705 22.2166 6.46273 21.767L17.4956 21.7547C19.2819 22.2125 19.1429 24.5992 17.2217 24.775L17.2176 24.7791ZM27.0405 25.6578C27.0405 26.2095 26.2188 27.031 25.667 27.031H24.0114V11.9665H26.9342L27.0405 12.0728V25.6578Z" fill="url(#paint0_linear_4566_30543)"/>
<defs>
<linearGradient id="paint0_linear_4566_30543" x1="15.002" y1="30.0308" x2="15.002" y2="0" gradientUnits="userSpaceOnUse">
<stop stop-color="#C9913D"/>
<stop offset="1" stop-color="#E4BB7D"/>
</linearGradient>
</defs>
</svg>
