<svg width="119" height="139" viewBox="0 0 119 139" fill="none" xmlns="http://www.w3.org/2000/svg">
<rect width="119" height="139" rx="8" fill="url(#paint0_linear_2034_11577)"/>
<g clip-path="url(#clip0_2034_11577)">
<path d="M59.7246 58.8546C58.8009 62.185 57.9035 65.4732 56.9798 68.7508C56.5232 70.3764 56.0403 71.9968 55.5208 73.6013C54.7388 76.0239 52.7182 77.3434 50.5139 76.9264C48.0945 76.4672 46.7142 74.3191 47.1761 71.5165C48.021 66.3652 49.0182 61.235 50.0469 56.1153C50.8498 52.1094 51.7893 48.1139 51.5688 43.976C51.5111 42.8412 51.3957 41.717 50.9758 40.6456C50.7554 40.0861 50.409 39.8697 49.8002 39.875C46.2734 39.9014 42.7413 39.9067 39.2145 39.875C36.097 39.8486 34.1237 36.9088 35.399 34.1168C36.1285 32.507 37.4826 31.6572 39.267 31.6467C42.5681 31.6308 45.8693 31.6044 49.1756 31.6572C51.6371 31.6942 54.0513 31.3141 56.6859 31.1189C54.9907 30.0527 53.6839 28.8388 52.9859 27.0865C52.2826 25.3184 52.2144 23.5291 52.9439 21.7769C54.2402 18.6417 57.3472 16.7206 60.4751 17.032C63.7343 17.3592 66.5211 19.7184 67.2243 22.7533C68.0063 26.1206 66.647 29.071 63.3039 31.0872C65.4032 31.3247 67.387 31.6467 69.3971 31.6467C73.1181 31.6467 76.8444 31.6255 80.5654 31.6467C83.0006 31.6572 84.8742 33.3303 84.9949 35.5365C85.1261 37.9908 83.2262 39.8539 80.5444 39.8697C77.112 39.8909 73.6797 39.9014 70.2473 39.8697C69.5231 39.8645 69.119 40.0756 68.8513 40.7512C68.4787 41.7065 68.3422 42.6882 68.274 43.6963C68.0378 47.0372 68.5679 50.299 69.2554 53.5503C70.4625 59.2399 71.6696 64.9243 72.7927 70.6298C73.1076 72.2184 73.1759 73.8599 72.0737 75.3008C70.5675 77.2747 67.6495 77.5756 65.8178 75.8919C64.9886 75.1319 64.4533 74.203 64.1331 73.1051C62.7948 68.5239 61.4145 63.9584 60.0448 59.3877C59.9923 59.2082 60.0133 58.9866 59.7246 58.8546ZM46.2209 34.2118C43.5075 34.2118 41.5342 34.2118 39.5556 34.2118C38.9468 34.2118 38.38 34.3331 37.9969 34.8293C37.6453 35.2885 37.5088 35.8268 37.7765 36.3863C38.0966 37.0566 38.6792 37.2835 39.3719 37.2835C42.7046 37.2888 46.0424 37.3891 49.3751 37.2677C51.9152 37.1727 53.2588 38.7614 53.6996 40.7195C54.3609 43.6541 54.3976 46.6203 53.9201 49.5337C53.0908 54.5953 51.9939 59.6094 51.0283 64.6445C50.5454 67.1569 50.0416 69.6745 49.669 72.2026C49.4853 73.4482 50.0416 74.1819 50.9758 74.3666C51.784 74.5302 52.7549 73.8916 53.0593 72.8465C54.4449 68.1386 55.8881 63.4517 57.0533 58.6857C57.4469 57.0865 58.3863 56.0942 59.7351 56.0784C61.1049 56.0626 62.249 57.0179 62.5901 58.5221C63.4141 62.1375 64.5582 65.6579 65.6446 69.1942C66.0435 70.4978 66.4161 71.812 66.878 73.0946C67.2086 74.013 68.2373 74.5777 69.0297 74.3982C69.9114 74.1977 70.368 73.5432 70.3208 72.4032C70.2946 71.7909 70.1791 71.184 70.0741 70.577C68.9353 64.0481 67.3765 57.609 66.1695 51.096C65.4977 47.4595 65.4032 43.7966 66.3007 40.1759C66.7782 38.2547 68.0798 37.2994 70.0374 37.3046C73.3071 37.3046 76.5767 37.3046 79.8464 37.3046C80.2662 37.3046 80.6861 37.273 81.1007 37.2096C81.8669 37.0935 82.3445 36.608 82.3918 35.8479C82.439 35.0773 81.9824 34.6023 81.2581 34.3543C80.875 34.2223 80.4972 34.2329 80.114 34.2223C75.3014 34.1009 70.4783 34.5073 65.6709 33.9637C63.5243 33.7209 61.3726 33.3514 59.2103 33.5203C54.6391 33.8792 50.0836 34.4545 46.2261 34.2276L46.2209 34.2118ZM64.8889 24.6164C64.9624 22.0988 62.5482 19.634 59.9398 19.5601C57.4154 19.4915 55.0957 21.7505 55.0117 24.3472C54.9277 26.907 57.2317 29.2557 59.8663 29.3032C62.4799 29.3455 64.8154 27.1709 64.8889 24.6164Z" fill="#FDFDFD"/>
<path d="M59.7093 35.5685C61.2313 35.5685 62.748 35.5474 64.27 35.5738C65.3826 35.5949 66.1121 36.5608 65.6031 37.4844C64.1388 40.134 63.656 43.1213 62.6378 45.9186C62.0605 47.502 61.6144 49.1329 61.1473 50.7533C60.9321 51.4869 60.5438 52.0094 59.7565 52.0094C58.9168 52.0094 58.5232 51.4447 58.3395 50.6635C57.5418 47.2118 56.4239 43.855 55.4057 40.4665C55.1118 39.4954 54.734 38.5664 54.1042 37.7642C53.721 37.2733 53.6633 36.7455 53.9205 36.2125C54.1776 35.6794 54.7025 35.5844 55.2483 35.5897C56.7335 35.5949 58.2188 35.5897 59.704 35.5897C59.704 35.5791 59.704 35.5738 59.704 35.5633L59.7093 35.5685Z" fill="#FDFDFD"/>
</g>
<defs>
<linearGradient id="paint0_linear_2034_11577" x1="59.5" y1="0" x2="59.5" y2="139" gradientUnits="userSpaceOnUse">
<stop stop-color="#E4BB7D"/>
<stop offset="1" stop-color="#C9913D"/>
</linearGradient>
<clipPath id="clip0_2034_11577">
<rect width="50" height="60" fill="white" transform="translate(35 17)"/>
</clipPath>
</defs>
</svg>
